inDegrees=no
num_controls=7
num_derivatives=13
num_iterations=138
num_multipliers=7
num_parameters=0
num_slacks=7
num_states=26
objective=6.053434
objective_accelerations=0.361813
objective_balance=0.058442
objective_effort=0.411827
objective_height=5.110820
objective_ligament=0.110532
solver_duration=1180.728169
status=Solve_Succeeded
success=true
DataType=double
version=3
OpenSimVersion=4.4-2022-07-23-0e9fedc
endheader
time	/jointset/ground_pelvis/pelvis_tilt/value	/jointset/ground_pelvis/pelvis_tx/value	/jointset/ground_pelvis/pelvis_ty/value	/jointset/hip_r/hip_flexion_r/value	/jointset/hip_r/hip_adduction_r/value	/jointset/hip_r/hip_rotation_r/value	/jointset/back/lumbar_extension/value	/jointset/patellofemoral_r/patellar_flexion_r/value	/jointset/knee_r/knee_flexion_r/value	/jointset/knee_r/knee_adduction_r/value	/jointset/knee_r/knee_rotation_r/value	/jointset/ankle_r/ankle_angle_r/value	/jointset/subtalar_r/subtalar_angle_r/value	/jointset/ground_pelvis/pelvis_tilt/speed	/jointset/ground_pelvis/pelvis_tx/speed	/jointset/ground_pelvis/pelvis_ty/speed	/jointset/hip_r/hip_flexion_r/speed	/jointset/hip_r/hip_adduction_r/speed	/jointset/hip_r/hip_rotation_r/speed	/jointset/back/lumbar_extension/speed	/jointset/patellofemoral_r/patellar_flexion_r/speed	/jointset/knee_r/knee_flexion_r/speed	/jointset/knee_r/knee_adduction_r/speed	/jointset/knee_r/knee_rotation_r/speed	/jointset/ankle_r/ankle_angle_r/speed	/jointset/subtalar_r/subtalar_angle_r/speed	/forceset/tau_hip_flexion_r	/forceset/tau_hip_adduction_r	/forceset/tau_hip_rotation_r	/forceset/tau_knee_flexion_r	/forceset/tau_ankle_angle_r	/forceset/tau_subtalar_angle_r	/forceset/tau_lumbar_extension	lambda_cid13_p0	lambda_cid14_p0	lambda_cid14_p1	lambda_cid14_p2	lambda_cid14_p3	lambda_cid14_p4	lambda_cid14_p5	/jointset/ground_pelvis/pelvis_tilt/accel	/jointset/ground_pelvis/pelvis_tx/accel	/jointset/ground_pelvis/pelvis_ty/accel	/jointset/hip_r/hip_flexion_r/accel	/jointset/hip_r/hip_adduction_r/accel	/jointset/hip_r/hip_rotation_r/accel	/jointset/back/lumbar_extension/accel	/jointset/patellofemoral_r/patellar_flexion_r/accel	/jointset/knee_r/knee_flexion_r/accel	/jointset/knee_r/knee_adduction_r/accel	/jointset/knee_r/knee_rotation_r/accel	/jointset/ankle_r/ankle_angle_r/accel	/jointset/subtalar_r/subtalar_angle_r/accel	gamma_cid13_p0	gamma_cid14_p0	gamma_cid14_p1	gamma_cid14_p2	gamma_cid14_p3	gamma_cid14_p4	gamma_cid14_p5
0.5	-0.08733196286704317	0.06458397090249202	0.8719055995494993	0.6446915310451513	-0.2272291061900961	-0.1433894855969165	-0.3076616957664516	0.6538748764329875	0.6538748764329564	0.03885537670661502	0.1745259170611213	0.2675601092581104	0.06188274770864348	-0.2351902932790844	-0.07286187745114155	-0.2937548140380941	1.29043785505636	-0.008418563365248597	0.2328252364294791	-0.6040658609546167	1.577440295095792	1.577440295095793	-0.2808704899125282	3.242162840173717e-05	0.6094009400854153	0.1671638955215448	-0.06677694368577664	-0.00888220514988523	0.006952229340649593	-0.3220748656144924	0.03870606700232613	-0.01309111615286924	0.1280621482457581	-33.88529884789939	-29.94547876098613	-7.162206653576824	-2.700430729939916	7.390765092603759	-671.6134654424374	54.2667154952323	0.03595517142643673	0.1737674745636881	-0.3242703633872283	-0.7044556020714888	-0.07896671543410437	-0.5177606424279124	1.138336629951412	-1.055062273745918	-1.05506227374593	0.4084522369590891	0.003754994951721379	-0.5220367778166483	-0.1112620669226173	-9.519181482120766e-08	-1.343784205538739e-07	4.792173040308219e-07	-1.152409198380518e-06	2.70619692096083e-08	-1.701458179141395e-07	8.548035806381206e-07
0.51	-0.08968183431634352	0.0638641450233929	0.8689524647107164	0.6575588133175909	-0.2273179320005268	-0.1410859341462123	-0.3136445435773522	0.6695941400225998	0.6695941400225887	0.03606940953925569	0.1745262434463377	0.2736268841174327	0.06354749104497502	-0.2347553270233908	-0.07109462449299007	-0.2968052115855679	1.282838445073021	-0.009347189041212928	0.2279012379926621	-0.5924232090965705	1.566178014367755	1.566178014367758	-0.276282401510057	2.212528194428665e-05	0.6038634025594115	0.1657507454057058	-0.07180470563457085	-0.007192466051479995	0.007594955464279358	-0.3245521666209321	0.03410607979113128	-0.01240648826706539	0.1326956318029073	-33.03665876227149	-31.54040242187988	-7.254448295096723	-2.559717236636438	8.0027192355659	-674.466020135729	54.09388234023017	0.05155647235802945	0.179511529430558	-0.2854161023272938	-0.8147214828634542	-0.1000564137010757	-0.4774554020385757	1.189303282700691	-1.19695425589772	-1.196954255897401	0.4900634903313305	-0.005227171535766354	-0.5832133466100105	-0.1615121448012519	-7.990816937109373e-08	-9.064910521940986e-08	5.503745512389783e-07	-8.102385139431965e-07	-6.803578827694428e-09	-1.192071807872332e-07	7.25009324053452e-07
0.52	-0.09202649827914337	0.06316225313847329	0.8659708275660791	0.6703446939329163	-0.2274160932517115	-0.1388311698714255	-0.3195085501058808	0.685193752148243	0.6851937521482218	0.03333053852561695	0.1745261058236272	0.2796355633801704	0.06519706874797189	-0.2341487959790164	-0.06927507861524246	-0.2994552752089799	1.274157523633741	-0.01028565151813633	0.2230678012466676	-0.5802976044797435	1.553510002297112	1.553510002297117	-0.2714512591699779	-6.037994816213762e-05	0.597781820768702	0.1641307688543993	-0.07683246758338101	-0.005502726953037961	0.008237681587487259	-0.3270294676273663	0.0295060925799536	-0.01172186038118878	0.1373291153600324	-32.17020796432752	-33.14294291225728	-7.345076832114231	-2.422627418052859	8.612874313306447	-677.439497607114	53.9864280002796	0.07026812916223672	0.1842260584832517	-0.2442035785748217	-0.9207578932599326	-0.08093407562603151	-0.499648304263299	1.234927181707358	-1.336208542267314	-1.336208542267323	0.4570630244808885	-0.01068678177815257	-0.6308456307573836	-0.1526273540160714	-5.966214449770988e-08	-8.015411434474213e-09	8.083439136760188e-07	-1.680919388912526e-07	-8.359335227497099e-08	-2.697113580014843e-08	5.596497112625081e-07
0.53	-0.09436420751513966	0.06247882934518636	0.8629647310597982	0.6830384604755728	-0.2275231816138427	-0.1366264544964026	-0.3252489025338323	0.7006598595429081	0.7006598595429081	0.0306389568419753	0.1745260291440056	0.2855810083483556	0.06683020444631343	-0.2333592934890192	-0.06739856793296002	-0.3016940972725682	1.264412140189927	-0.01113802592207656	0.2179151353323739	-0.5676937489285064	1.539492374816698	1.539492374816708	-0.266806388871278	2.245518630743331e-05	0.5912291876918333	0.1624571046934506	-0.08179691666286587	-0.004048973006042082	0.008898205900635132	-0.3296316080770693	0.02519915153363877	-0.01106205065131336	0.1419292373994689	-31.28946116853252	-34.65264526586698	-7.429436136028792	-2.287442335850734	9.126044484036857	-680.4366874907802	53.93640746565422	0.0883568131199679	0.1910056049068012	-0.2032279088041138	-1.028971471062571	-0.08818093425323253	-0.5171339916374029	1.284984568758421	-1.467395318279759	-1.4673953182791	0.477144442277001	0.0144271335309808	-0.6791952543241504	-0.1804576620454441	-4.006080161568177e-08	6.336605111726994e-08	1.003787422138147e-06	3.808416839730165e-07	-1.475722466424967e-07	5.285701102341003e-08	4.189935481294114e-07
0.54	-0.09669300862538321	0.06181449906508347	0.8599383450551711	0.6956292646035763	-0.2276389520822589	-0.1344720774318802	-0.3308608424408884	0.7159792195692914	0.7159792195693175	0.02799561294330833	0.1745261125102282	0.2914585823641377	0.06844545916006557	-0.2323671708309643	-0.06545637597843451	-0.303513174878224	1.253565040701295	-0.01202207278505208	0.2130001391530978	-0.554615100300204	1.52416052864223	1.524160528642244	-0.2618037021840829	-2.837078036549053e-05	0.5842076302880677	0.1605545719360529	-0.08676136574239192	-0.002595219059048791	0.009558730213964197	-0.3322337485267908	0.02089221048731112	-0.01040224092147676	0.1465293594388722	-30.40220251143107	-36.16888843172507	-7.513490792228469	-2.1539612475582	9.645553717206539	-683.5336847026879	53.90518571332086	0.1107921627734081	0.1973623129321849	-0.1602546869883069	-1.141101102223612	-0.08726856743321088	-0.4521143572596615	1.329885797120227	-1.599052281078242	-1.599052281078272	0.5286263021801442	-0.03741900200672808	-0.7246304961363982	-0.1984010733058673	-2.117272391557919e-08	1.22298236559951e-07	1.130053390032285e-06	8.266460831402832e-07	-1.973774024537021e-07	1.189572705171095e-07	3.056688612135078e-07
0.55	-0.09901101051799531	0.06116986608761753	0.8568958813373989	0.7081064167381003	-0.2277632614823917	-0.1323675037641147	-0.336339751855313	0.7311388265827446	0.7311388265827572	0.02540206986553535	0.1745259558261179	0.2972637548808963	0.07004124232372308	-0.231205141150869	-0.06346327192965429	-0.30490717642299	1.241694441147245	-0.0128398917499577	0.2079276434596396	-0.541107921049111	1.507547847207049	1.507547847207063	-0.2568740963336881	-9.842039478348189e-06	0.5767504775462319	0.1585706031535005	-0.09140532679016716	-0.001280464656917652	0.01014195079054324	-0.3351585195524303	0.01703713071549876	-0.009760506429994674	0.1508579409763405	-29.512052185222	-37.54132184744826	-7.579621411761065	-2.024017335912515	10.09668715378833	-686.6136633974127	53.94142407483324	0.1231296418661633	0.2012816807145803	-0.1180830478080585	-1.235664245178994	-0.07877203840119722	-0.5328054293271764	1.369963219043274	-1.724327927133822	-1.724327927133828	0.4799694442388231	0.02067523868900824	-0.7677509779733448	-0.2027990157143342	-9.143164974509878e-09	1.585835057943643e-07	1.206654847613794e-06	1.093698681201644e-06	-2.282384427665201e-07	1.597536827023444e-07	2.509432622830321e-07
0.5600000000000001	-0.1013165478595509	0.06054536359661208	0.853841655572262	0.7204597379044534	-0.2278956957676092	-0.1303132527041006	-0.3416818236312407	0.7461259164113706	0.7461259164113615	0.02285879118985842	0.1745258217147171	0.3029920572072835	0.07161630495256048	-0.2298742606212295	-0.0614302786863364	-0.3058655843511893	1.228798847065859	-0.01364704981015781	0.202935617608666	-0.527247572600434	1.489657091676033	1.489657091676047	-0.2517508217725078	-2.385623648668064e-05	0.5688335922137533	0.15641046497157	-0.09604928783796976	3.4289745196883e-05	0.01072517136714636	-0.3380832905780798	0.01318205094367626	-0.009118771938553899	0.1551865225137886	-28.61971150316107	-38.92114049439462	-7.647575551693588	-1.893175489920247	10.56274842690067	-689.8045015873078	53.96444344980219	0.1445623326818738	0.205340151840019	-0.07313596367499164	-1.346100007690992	-0.08513638649222974	-0.436020388762656	1.40051963663686	-1.854667100245431	-1.85466710024543	0.567360044337442	-0.043927589585878	-0.8165770142645701	-0.2336349531814795	-5.343828544280207e-09	1.676924755788572e-07	1.223658892820149e-06	1.146249117935924e-06	-2.363665444812742e-07	1.701854781174228e-07	2.665365689350675e-07
0.5700000000000001	-0.1036079579139481	0.05994136775220769	0.8507800194145366	0.7326791483987694	-0.228036073372483	-0.1283088758044326	-0.3468835551117599	0.7609279237342543	0.7609279237342709	0.02036724990363171	0.1745255571028483	0.3086390174752041	0.07316902436858683	-0.2283771829435907	-0.05936389998971857	-0.3063885392743561	1.21491987352216	-0.01442406788348593	0.1979403906079683	-0.5130481833754104	1.470548699627473	1.470548699627463	-0.2465451494570954	-2.847302944937019e-05	0.5604919010160773	0.1541099660432078	-0.100602685021833	0.001407590109814528	0.01120163588900171	-0.3409283519008495	0.009384481725023605	-0.008470654100619179	0.1594193208026924	-27.72611895561131	-40.2759737326129	-7.708374495344894	-1.763485077110615	11.01005463737697	-692.8918018546026	53.98022953645392	0.1568784039699364	0.2079870672914442	-0.03087385141135047	-1.433283768520702	-0.07303032195107916	-0.5311157034001995	1.437229584210806	-1.968275609424293	-1.96827560942771	0.4992350079919546	0.02160276925078156	-0.8529834046273876	-0.2314429766122899	-3.266495349548349e-09	1.697471590827797e-07	1.218212095522989e-06	1.146186005232852e-06	-2.377071957629461e-07	1.724497837675081e-07	2.90065000809923e-07
0.58	-0.1058834776078335	0.05935817576251318	0.8477153539886252	0.7447548716094875	-0.2281840303189075	-0.1263544195443269	-0.3519417764962748	0.7755329770662032	0.775532977066239	0.01792817817715232	0.1745253126217242	0.3142005571847267	0.07469810167254111	-0.2266961885193424	-0.05726950774436373	-0.306471437988418	1.20006139034601	-0.01516291812472674	0.1929514897002036	-0.4985455533993511	1.450266293488398	1.450266293488365	-0.2412569098277233	-1.983008632041032e-05	0.5517494805340749	0.1516820425568955	-0.1051560822057184	0.002780890474384924	0.01167810041093857	-0.3437734132236245	0.005586912506355976	-0.007822536262757328	0.1636521190915845	-26.83241594989155	-41.63926778423941	-7.771293845724582	-1.632725301750023	11.47511758469561	-696.1067164943659	53.98052349153606	0.1813456820034249	0.2109428615877208	0.01487527814602288	-1.542001934181324	-0.077502820074864	-0.4347551701759408	1.461167786843794	-2.089469918348262	-2.089469918348267	0.5838735071295973	-0.04127564236757281	-0.896722871129462	-0.2591198647715123	-3.431771019650781e-09	1.626148651050293e-07	1.183526991709624e-06	1.07760292116951e-06	-2.302083767131626e-07	1.640773585608583e-07	3.23927549254032e-07
